# xmcd
#
# Track frame offsets:
#	150
#	23186
#	46416
#	90024
#	108686
#	127404
#	148089
#	164599
#	176449
#	202679
#	227876
#	253819
#	271956
#	292166
#
# Disc length: 4177 seconds
#
# Revision: 1
# Processed by: cddbd v1.5PL3 Copyright (c) Steve Scherf et al.
# Submitted via: audiograbber 1.82.01
#
DISCID=d0104f0e
DTITLE=Eric Clapton - Archives Pathfinder - Outtakes - Mid Valley Records - Dis
DTITLE=c 5
DYEAR=1900
DGENRE=
TTITLE0=Eric Clapton - Pretty Blue Eyes (Different Instrumental Take)
TTITLE1=Eric Clapton - Fool Like Me (Originally Unreleased Song)
TTITLE2=Eric Clapton - Singin' the Blues (Backing Track Long Version)
TTITLE3=Eric Clapton - I Found a Love #1 (Previously Unreleased Instrumental Ha
TTITLE3=rd Edge Guitar Version)
TTITLE4=Eric Clapton - I Found a Love #2 (EC's Vocal and Guitar Overdub)
TTITLE5=Eric Clapton - I Found a Love #3 (Different Take With EC's Vocal and Guit
TTITLE5=ar)
TTITLE6=Eric Clapton - I Found a Love #4 (Originally Unreleased Song)
TTITLE7=Eric Clapton - Matchbox (Drunken Jam)
TTITLE8=Eric Clapton - It Hurts Me Too (Different Take)
TTITLE9=Eric Clapton - It Hurts Me Too (Originally Unreleased Song)
TTITLE10=Eric Clapton - Swing Low Sweet Chariot (Previously Unreleased Differen
TTITLE10=t Take)
TTITLE11=Eric Clapton - The Sky is Crying (Altermate Mix Version Without Piano 
TTITLE11=Overdub)
TTITLE12=Eric Clapton - Better Make it Through Today (Long Alternate Mix Versio
TTITLE12=n)
TTITLE13=Eric Clapton - Don't Blame Me (Extended Version)
EXTD=
EXTT0=
EXTT1=
EXTT2=
EXTT3=
EXTT4=
EXTT5=
EXTT6=
EXTT7=
EXTT8=
EXTT9=
EXTT10=
EXTT11=
EXTT12=
EXTT13=
PLAYORDER=
